<svg xmlns="http://www.w3.org/2000/svg" width="256" height="256" viewBox="0 0 100 100"><rect width="100" height="100" rx="20" fill="#222125"></rect><path fill="#caebf3" d="M37.96 45.30L37.96 30.22L45.27 30.22L45.27 66.07Q45.27 68.04 44.03 69.31Q42.78 70.59 40.81 70.59L40.81 70.59L23.70 70.59L23.70 63.63L36.40 63.63Q37.96 63.63 37.96 61.89L37.96 61.89L37.96 54.81L36.92 54.81Q35.01 59.80 28.68 59.80L28.68 59.80Q26.54 59.80 24.68 59.11Q22.83 58.41 21.43 56.96Q20.04 55.51 19.26 53.34Q18.48 51.16 18.48 48.20L18.48 48.20L18.48 30.22L25.78 30.22L25.78 46.69Q25.78 49.77 27.23 51.48Q28.68 53.19 31.58 53.19L31.58 53.19Q34.89 53.19 36.43 51.07Q37.96 48.96 37.96 45.30L37.96 45.30ZM81.52 46.98L60.41 46.98Q60.47 48.26 61.02 49.33Q61.57 50.41 62.53 51.19Q63.48 51.97 64.73 52.41Q65.98 52.84 67.37 52.84L67.37 52.84Q70.10 52.84 71.55 51.89Q73.00 50.93 73.63 49.59L73.63 49.59L79.90 53.07Q79.38 54.18 78.45 55.37Q77.52 56.55 76.04 57.54Q74.56 58.53 72.45 59.16Q70.33 59.80 67.49 59.80L67.49 59.80Q64.24 59.80 61.57 58.76Q58.90 57.71 56.96 55.74Q55.02 53.77 53.94 50.93Q52.87 48.09 52.87 44.49L52.87 44.49L52.87 44.14Q52.87 40.84 54.00 38.11Q55.13 35.38 57.10 33.47Q59.08 31.56 61.72 30.48Q64.36 29.41 67.37 29.41L67.37 29.41Q71.08 29.41 73.75 30.72Q76.42 32.02 78.16 34.02Q79.90 36.02 80.71 38.43Q81.52 40.84 81.52 43.10L81.52 43.10L81.52 46.98ZM67.31 36.02L67.31 36.02Q64.53 36.02 62.79 37.44Q61.05 38.86 60.53 40.72L60.53 40.72L74.10 40.72Q73.75 38.69 71.92 37.36Q70.10 36.02 67.31 36.02Z"></path></svg>